<?xml version="1.0" encoding="utf-8"?>
<!-- Generator: Adobe Illustrator 19.1.0, SVG Export Plug-In . SVG Version: 6.00 Build 0)  -->
<svg version="1.1" id="Layer_1" xmlns="http://www.w3.org/2000/svg" xmlns:xlink="http://www.w3.org/1999/xlink" x="0px" y="0px"
	 viewBox="0 0 200 200" style="enable-background:new 0 0 200 200;" xml:space="preserve">
<style type="text/css">
	.st0{fill:#0C6993;}
	.st1{fill:#F9F9F9;}
	.st2{fill:none;}
	.st3{fill:none;stroke:#F9F9F9;stroke-width:2;stroke-miterlimit:10;}
	.st4{fill:#F9F9F9;stroke:#F9F9F9;stroke-width:2;stroke-miterlimit:10;}
	.st5{fill:#0C6993;stroke:#F9F9F9;stroke-width:2;stroke-miterlimit:10;}
	.st6{fill:none;stroke:#F9F9F9;stroke-width:2;stroke-linecap:round;stroke-miterlimit:10;}
	.st7{clip-path:url(#SVGID_2_);fill:#F9F9F9;}
	.st8{clip-path:url(#SVGID_2_);fill:none;stroke:#F9F9F9;stroke-miterlimit:10;}
	.st9{clip-path:url(#SVGID_2_);fill:#0C6993;}
	.st10{clip-path:url(#SVGID_2_);}
	.st11{clip-path:url(#SVGID_4_);fill:#0C6993;}
	.st12{clip-path:url(#SVGID_4_);fill:#F9F9F9;}
	.st13{clip-path:url(#SVGID_4_);}
	.st14{fill:#FFFFFF;}
</style>
<circle class="st0" cx="100" cy="100" r="100"/>
<g>
	<rect x="65" y="36" class="st1" width="70" height="50"/>
	<circle class="st0" cx="100" cy="61" r="20"/>
	<circle class="st1" cx="100" cy="61" r="15"/>
	<circle class="st0" cx="127.5" cy="43.5" r="2.5"/>
	<rect x="71" y="33" class="st1" width="10" height="3"/>
	<polygon class="st1" points="110,36 90,36 92.9,30 107.1,30 	"/>
</g>
<polygon class="st2" points="61.8,143.1 45.7,164.6 72.4,161.4 170.4,104.9 159.8,86.5 "/>
<polygon class="st3" points="61.8,143.1 45.7,164.6 72.4,161.4 170.4,104.9 159.8,86.5 "/>
<line class="st3" x1="67.7" y1="151.9" x2="152.9" y2="102.7"/>
<line class="st3" x1="61.8" y1="143.1" x2="72.4" y2="161.4"/>
<rect x="148.4" y="92.1" transform="matrix(-0.5 -0.866 0.866 -0.5 152.5614 286.5128)" class="st3" width="21.2" height="14.1"/>
<polygon class="st4" points="36.4,95.8 41.2,87.5 127.6,134.1 134.6,136.1 124.5,153.6 119.9,147.3 "/>
<rect x="125.7" y="145.2" transform="matrix(-0.5 0.866 -0.866 -0.5 333.53 105.4355)" class="st5" width="21.3" height="7.6"/>
<path class="st6" d="M135.2,160.6c10.5,6.1,17.8,5.2,17.8,5.2l10.6-18.4c0,0-7.3,0.9-17.8-5.2"/>
<path class="st6" d="M155.1,162.1c0,0-7.3,0.9-17.8-5.2"/>
<path class="st6" d="M157.2,158.5c0,0-7.3,0.9-17.8-5.2"/>
<path class="st6" d="M159.4,154.8c0,0-7.3,0.9-17.8-5.2"/>
<path class="st6" d="M161.5,151.1c0,0-7.3,0.9-17.8-5.2"/>
<polygon class="st14" points="45.7,164.6 61.7,162.7 55.4,151.7 "/>
</svg>
