<?xml version="1.0" encoding="utf-8"?>
<!-- Generator: Adobe Illustrator 19.1.0, SVG Export Plug-In . SVG Version: 6.00 Build 0)  -->
<svg version="1.1" id="Layer_1" xmlns="http://www.w3.org/2000/svg" xmlns:xlink="http://www.w3.org/1999/xlink" x="0px" y="0px"
	 viewBox="0 0 200 200" style="enable-background:new 0 0 200 200;" xml:space="preserve">
<style type="text/css">
	.st0{fill:#0C6993;}
	.st1{fill:#F9F9F9;}
	.st2{fill:none;}
	.st3{fill:none;stroke:#F9F9F9;stroke-width:2;stroke-miterlimit:10;}
	.st4{fill:none;stroke:#0C6993;stroke-width:2;stroke-miterlimit:10;}
	.st5{fill:#F9F9F9;stroke:#F9F9F9;stroke-width:2;stroke-miterlimit:10;}
	.st6{fill:#0C6993;stroke:#F9F9F9;stroke-width:2;stroke-miterlimit:10;}
	.st7{fill:none;stroke:#F9F9F9;stroke-width:2;stroke-linecap:round;stroke-miterlimit:10;}
	.st8{clip-path:url(#SVGID_2_);fill:#F9F9F9;}
	.st9{clip-path:url(#SVGID_2_);fill:none;stroke:#F9F9F9;stroke-miterlimit:10;}
	.st10{clip-path:url(#SVGID_2_);fill:#0C6993;}
	.st11{clip-path:url(#SVGID_2_);}
	.st12{clip-path:url(#SVGID_4_);fill:#0C6993;}
	.st13{clip-path:url(#SVGID_4_);fill:#F9F9F9;}
	.st14{clip-path:url(#SVGID_4_);}
</style>
<circle class="st0" cx="100" cy="100" r="100"/>
<g>
	<defs>
		<circle id="SVGID_1_" cx="100" cy="100" r="100"/>
	</defs>
	<clipPath id="SVGID_2_">
		<use xlink:href="#SVGID_1_"  style="overflow:visible;"/>
	</clipPath>
	<rect x="9" y="30" class="st8" width="30" height="60"/>
	<rect x="10" y="125" class="st8" width="30" height="30"/>
	<rect x="50" y="110" class="st8" width="30" height="60"/>
	<rect x="90" y="115" class="st8" width="30" height="50"/>
	<rect x="130" y="130" class="st8" width="30" height="20"/>
	<rect x="170" y="120" class="st8" width="30" height="40"/>
	<rect x="50" y="50" class="st8" width="30" height="20"/>
	<rect x="90" y="45" class="st8" width="30" height="30"/>
	<rect x="130" y="35" class="st8" width="30" height="50"/>
	<rect x="170" y="45" class="st8" width="30" height="30"/>
	<polyline class="st9" points="95,116 105,111 115,116 	"/>
	<polyline class="st9" points="135,131 145,126 155,131 	"/>
	<polyline class="st9" points="175,121 185,116 195,121 	"/>
	<polyline class="st9" points="175,46 185,41 195,46 	"/>
	<polyline class="st9" points="135,36 145,31 155,36 	"/>
	<polyline class="st9" points="95,46 105,41 115,46 	"/>
	<polyline class="st9" points="55,51 65,46 75,51 	"/>
	<polyline class="st9" points="15,31 25,26 35,31 	"/>
	<polyline class="st9" points="15,126 25,121 35,126 	"/>
	<polyline class="st9" points="55,111 65,106 75,111 	"/>
	<rect x="9" y="92" class="st8" width="10" height="7"/>
	<rect x="10" y="93" class="st10" width="8" height="2"/>
	<rect x="10" y="96" class="st10" width="6" height="2"/>
	<g class="st11">
		<rect x="50" y="72" class="st1" width="10" height="7"/>
		<rect x="51" y="73" class="st0" width="8" height="2"/>
		<rect x="51" y="76" class="st0" width="6" height="2"/>
	</g>
	<g class="st11">
		<rect x="90" y="77" class="st1" width="10" height="7"/>
		<rect x="91" y="78" class="st0" width="8" height="2"/>
		<rect x="91" y="81" class="st0" width="6" height="2"/>
	</g>
	<g class="st11">
		<rect x="130" y="87" class="st1" width="10" height="7"/>
		<rect x="131" y="88" class="st0" width="8" height="2"/>
		<rect x="131" y="91" class="st0" width="6" height="2"/>
	</g>
	<g class="st11">
		<rect x="170" y="77" class="st1" width="10" height="7"/>
		<rect x="171" y="78" class="st0" width="8" height="2"/>
		<rect x="171" y="81" class="st0" width="6" height="2"/>
	</g>
	<g class="st11">
		<rect x="170" y="162" class="st1" width="10" height="7"/>
		<rect x="171" y="163" class="st0" width="8" height="2"/>
		<rect x="171" y="166" class="st0" width="6" height="2"/>
	</g>
	<g class="st11">
		<rect x="130" y="152" class="st1" width="10" height="7"/>
		<rect x="131" y="153" class="st0" width="8" height="2"/>
		<rect x="131" y="156" class="st0" width="6" height="2"/>
	</g>
	<g class="st11">
		<rect x="90" y="167" class="st1" width="10" height="7"/>
		<rect x="91" y="168" class="st0" width="8" height="2"/>
		<rect x="91" y="171" class="st0" width="6" height="2"/>
	</g>
	<g class="st11">
		<rect x="50" y="172" class="st1" width="10" height="7"/>
		<rect x="51" y="173" class="st0" width="8" height="2"/>
		<rect x="51" y="176" class="st0" width="6" height="2"/>
	</g>
	<g class="st11">
		<rect x="10" y="157" class="st1" width="10" height="7"/>
		<rect x="11" y="158" class="st0" width="8" height="2"/>
		<rect x="11" y="161" class="st0" width="6" height="2"/>
	</g>
</g>
</svg>
