<?xml version="1.0" encoding="utf-8"?>
<!-- Generator: Adobe Illustrator 19.1.0, SVG Export Plug-In . SVG Version: 6.00 Build 0)  -->
<svg version="1.1" id="Layer_1" xmlns="http://www.w3.org/2000/svg" xmlns:xlink="http://www.w3.org/1999/xlink" x="0px" y="0px"
	 viewBox="0 0 110 90" style="enable-background:new 0 0 110 90;" xml:space="preserve">
<style type="text/css">
	.st0{fill:none;stroke:#000000;stroke-miterlimit:10;}
	.st1{fill:none;stroke:#FFFFFF;stroke-miterlimit:10;}
	.st2{clip-path:url(#SVGID_2_);}
	.st3{fill:#FFFFFF;}
</style>
<polygon points="0,0 10,10 10,80 100,80 110,90 0,90 "/>
<g>
	<path d="M109,1v86.6l-8-8V10V9h-1H10.4l-8-8H109 M110,0H0l10,10h90v70l10,10V0L110,0z"/>
</g>
<line class="st0" x1="27.5" y1="20" x2="27.5" y2="65"/>
<polygon points="38,20 53,50 53,70 28,20 "/>
<circle cx="27.5" cy="61" r="7.5"/>
<polygon points="53,70 78,20 79,20 54,70 "/>
<polygon points="74,40 84,20 84,30 74,50 "/>
<polygon points="74,60 84,40 84,50 74,70 "/>
<polygon points="84,60 84,70 79,70 "/>
<g>
	<path class="st3" d="M21.9,85.6c0,1,0,1.6,0,1.8c0,0.2,0.1,0.3,0.2,0.3c0.3,0,0.4,0.1,0.7,0.1l0,0.3c-0.3,0-0.9,0-1.5,0
		c-0.4,0-0.9,0-1.3,0l0-0.3c0.2,0,0.4,0,0.7-0.1c0.2,0,0.3-0.1,0.3-0.3c0-0.3,0-0.8,0-1.9v-2.1c0-0.6,0-1.2,0-1.4
		c-1.2,0-1.3,0.1-1.5,0.5c-0.1,0.3-0.2,0.7-0.3,1l-0.2-0.1c0.1-0.4,0.2-1.4,0.2-1.8c0.3,0.1,0.8,0.1,1.9,0.1h0.7
		c1.4,0,1.8,0,2.1-0.1c0,0.2-0.1,1.1-0.1,1.7l-0.3,0.1c0-0.5-0.1-0.9-0.2-1.1c-0.1-0.3-0.2-0.4-1.4-0.4c0,0.3,0,0.8,0,1.3V85.6z"/>
	<path class="st3" d="M26.2,84.7c0-0.4-0.2-0.8-0.7-0.8c-0.5,0-0.8,0.3-0.8,0.7c0,0.1,0,0.2,0,0.3c0,0.1,0,0.2-0.1,0.2
		c-0.1,0.1-0.2,0.1-0.3,0.1c-0.2,0-0.4-0.1-0.4-0.4c0-0.5,0.7-1.1,1.7-1.1c0.8,0,1.1,0.3,1.2,0.5c0.1,0.1,0.1,0.3,0.1,0.5
		c0,0.3,0,2,0,2.6c0,0.4,0.1,0.4,0.2,0.4c0.2,0,0.3-0.2,0.4-0.6l0.2,0.1c-0.1,0.7-0.5,0.9-0.9,0.9c-0.5,0-0.7-0.3-0.7-0.7
		c-0.4,0.4-0.9,0.7-1.3,0.7c-0.7,0-1.1-0.5-1.1-1.2c0-0.4,0.1-0.7,0.5-0.9c0.6-0.3,1.5-0.6,1.9-0.9V84.7z M24.6,86.8
		c0,0.4,0.2,0.8,0.6,0.8c0.4,0,0.7-0.2,0.8-0.6c0-0.1,0-0.3,0-0.4v-1.2c-0.2,0.1-0.7,0.4-1.1,0.5C24.8,86.2,24.6,86.3,24.6,86.8
		L24.6,86.8z"/>
	<path class="st3" d="M28,81.4c0.6,0,1.2-0.1,1.5-0.1c0,0.4,0,1.2,0,2v2.3c0.4-0.1,1.1-1,1.4-1.4c0.1-0.1,0-0.1-0.1-0.2l-0.4,0v-0.3
		c0.6,0,1.2,0,1.9,0V84c-0.5,0.1-0.7,0.1-0.9,0.3c-0.2,0.2-0.7,0.7-1.1,1.1c0.4,0.7,1.3,1.9,1.6,2.2c0.1,0.1,0.3,0.2,0.5,0.2h0.3
		l0,0.3c-0.5,0-1.1,0-1.4,0.1c-0.3-0.6-1.2-1.8-1.4-2.1c-0.1-0.2-0.2-0.2-0.3-0.1c0,0.7,0,1.1,0,1.6c0,0.2,0.1,0.2,0.6,0.2l0,0.3
		c-0.3,0-0.7,0-1.1,0c-0.5,0-0.8,0-1,0l0-0.3c0.5,0,0.6-0.1,0.6-0.2c0-0.2,0-0.8,0-1.6v-2.6c0-0.8,0-1.2,0-1.5c0-0.1,0-0.1-0.2-0.1
		l-0.4,0V81.4z"/>
	<path class="st3" d="M34.6,88.1c-0.7,0-1.2-0.2-1.5-0.7c-0.3-0.3-0.4-0.9-0.4-1.5c0-1.2,0.6-2.4,1.9-2.4c1.3,0,1.6,1.1,1.6,1.7
		c0,0.2-0.1,0.4-0.2,0.4c-0.2,0.1-0.7,0.1-1.2,0.1c-0.3,0-0.7,0-1.1,0c0,0.6,0.1,1.1,0.3,1.3c0.2,0.3,0.5,0.5,0.9,0.5
		c0.5,0,0.9-0.3,1.1-0.9l0.2,0.1C35.9,87.8,35.4,88.1,34.6,88.1z M34.6,83.9c-0.6,0-0.9,0.9-0.9,1.6c0.2,0,0.5,0,0.7,0
		c0.4,0,0.6,0,0.8,0c0.1,0,0.2-0.1,0.2-0.4C35.4,84.6,35.2,83.9,34.6,83.9L34.6,83.9z"/>
	<path class="st3" d="M38.6,81.4c0.5,0,1.2-0.1,1.5-0.1c0,0.4,0,1,0,2.1v0.9c0.5-0.4,0.9-0.7,1.4-0.7c0.6,0,1,0.3,1.2,0.6
		c0.2,0.3,0.3,0.9,0.3,1.4c0,1.5-0.7,2.5-2.1,2.5c-0.4,0-0.9-0.1-1.1-0.3c-0.1,0.1-0.3,0.2-0.5,0.3l-0.1,0c0-0.4,0-1.4,0-2.5v-2.3
		c0-0.8,0-1.1,0-1.3c0-0.1-0.1-0.2-0.6-0.2L38.6,81.4z M41,87.8c0.9,0,1.1-1,1.1-2.1c0-0.5-0.1-1-0.3-1.3c-0.2-0.3-0.4-0.4-0.7-0.4
		c-0.4,0-0.8,0.3-1,0.6C40.1,84.8,40,84.8,40,86c0,1.1,0,1.2,0.1,1.3C40.3,87.7,40.6,87.8,41,87.8L41,87.8z"/>
	<path class="st3" d="M46.3,84.7c0-0.4-0.2-0.8-0.7-0.8c-0.5,0-0.8,0.3-0.8,0.7c0,0.1,0,0.2,0,0.3c0,0.1,0,0.2-0.1,0.2
		c-0.1,0.1-0.2,0.1-0.3,0.1c-0.2,0-0.4-0.1-0.4-0.4c0-0.5,0.7-1.1,1.7-1.1c0.8,0,1.1,0.3,1.2,0.5c0.1,0.1,0.1,0.3,0.1,0.5
		c0,0.3,0,2,0,2.6c0,0.4,0.1,0.4,0.2,0.4c0.2,0,0.3-0.2,0.4-0.6l0.2,0.1c-0.1,0.7-0.5,0.9-0.9,0.9c-0.5,0-0.7-0.3-0.7-0.7
		c-0.4,0.4-0.9,0.7-1.3,0.7c-0.7,0-1.1-0.5-1.1-1.2c0-0.4,0.1-0.7,0.5-0.9c0.6-0.3,1.5-0.6,1.9-0.9V84.7z M44.7,86.8
		c0,0.4,0.2,0.8,0.6,0.8c0.4,0,0.7-0.2,0.8-0.6c0-0.1,0-0.3,0-0.4v-1.2c-0.2,0.1-0.7,0.4-1.1,0.5C44.9,86.2,44.7,86.3,44.7,86.8
		L44.7,86.8z"/>
	<path class="st3" d="M51.9,86.9c-0.2,0.8-0.8,1.3-1.7,1.3c-0.7,0-1.1-0.2-1.5-0.6c-0.3-0.4-0.4-0.9-0.4-1.6c0-1.2,0.8-2.3,2.1-2.3
		c0.8,0,1.4,0.4,1.4,1c0,0.3-0.2,0.5-0.5,0.5c-0.1,0-0.2,0-0.2-0.1C51,85,51,84.9,51,84.9c0-0.1,0-0.2,0-0.3c0-0.4-0.2-0.7-0.7-0.7
		c-0.7,0-1.1,0.9-1.1,1.9c0,0.5,0.1,1,0.3,1.3c0.2,0.4,0.5,0.6,1,0.6c0.6,0,0.9-0.3,1.2-1L51.9,86.9z"/>
	<path class="st3" d="M52.3,81.4c0.6,0,1.2-0.1,1.5-0.1c0,0.4,0,1.2,0,2v2.3c0.4-0.1,1.1-1,1.4-1.4c0.1-0.1,0-0.1-0.1-0.2l-0.4,0
		v-0.3c0.6,0,1.2,0,1.9,0V84c-0.5,0.1-0.7,0.1-0.9,0.3c-0.2,0.2-0.7,0.7-1.1,1.1c0.4,0.7,1.3,1.9,1.6,2.2c0.1,0.1,0.3,0.2,0.5,0.2
		h0.3l0,0.3c-0.5,0-1.1,0-1.4,0.1c-0.3-0.6-1.2-1.8-1.4-2.1c-0.1-0.2-0.2-0.2-0.3-0.1c0,0.7,0,1.1,0,1.6c0,0.2,0.1,0.2,0.6,0.2
		l0,0.3c-0.3,0-0.7,0-1.1,0c-0.5,0-0.8,0-1,0l0-0.3c0.5,0,0.6-0.1,0.6-0.2c0-0.2,0-0.8,0-1.6v-2.6c0-0.8,0-1.2,0-1.5
		c0-0.1,0-0.1-0.2-0.1l-0.4,0V81.4z"/>
	<path class="st3" d="M61.6,83.7l0,0.3l-1.2,0.1c0,0.4,0,0.8,0,1.6c0,0.9,0,1.4,0.1,1.7c0,0.2,0.2,0.4,0.4,0.4
		c0.4,0,0.7-0.3,0.8-0.8h0.1l0.1,0.4c-0.2,0.5-0.7,0.8-1.3,0.8c-0.4,0-0.7-0.1-0.8-0.3c-0.1-0.1-0.2-0.3-0.2-0.6c0-0.8,0-2.3,0-3.1
		L58.9,84l0-0.3h0.6c0-0.3,0-0.8,0-1c0.4-0.1,0.7-0.3,0.8-0.5l0.1,0c0,0.2,0,0.9,0,1.5H61.6z"/>
	<path class="st3" d="M62,81.4c0.5,0,1.2-0.1,1.5-0.1c0,0.4,0,1,0,1.9v1.2c0.3-0.3,0.9-0.7,1.5-0.7c0.6,0,0.9,0.3,1,0.5
		c0.1,0.2,0.2,0.4,0.2,0.8c0,0.9,0,2,0,2.6c0,0.2,0,0.2,0.6,0.3l0,0.3c-0.3,0-0.6,0-1,0c-0.4,0-0.7,0-1,0v-0.3
		c0.4,0,0.5-0.1,0.5-0.2c0-0.2,0-0.7,0-1.5c0-1.3,0-1.4-0.1-1.5c-0.1-0.2-0.3-0.4-0.6-0.4c-0.4,0-0.7,0.2-1,0.6
		c-0.1,0.1-0.1,0.3-0.1,0.5v1.2c0,0.5,0,0.9,0,1.1c0,0.2,0.1,0.3,0.5,0.3l0,0.3c-0.2,0-0.7,0-1,0c-0.4,0-0.7,0-1,0v-0.3
		c0.5,0,0.5-0.1,0.6-0.3c0-0.3,0-0.6,0-1.5v-2.8c0-0.8,0-1.1,0-1.3c0-0.1-0.1-0.2-0.5-0.2L62,81.4z"/>
	<path class="st3" d="M69.2,88.1c-0.7,0-1.2-0.2-1.5-0.7c-0.3-0.3-0.4-0.9-0.4-1.5c0-1.2,0.6-2.4,1.9-2.4c1.3,0,1.6,1.1,1.6,1.7
		c0,0.2-0.1,0.4-0.2,0.4c-0.2,0.1-0.7,0.1-1.2,0.1c-0.3,0-0.7,0-1.1,0c0,0.6,0.1,1.1,0.3,1.3c0.2,0.3,0.5,0.5,0.9,0.5
		c0.5,0,0.9-0.3,1.1-0.9l0.2,0.1C70.6,87.8,70,88.1,69.2,88.1z M69.2,83.9c-0.6,0-0.9,0.9-0.9,1.6c0.2,0,0.5,0,0.7,0
		c0.4,0,0.6,0,0.8,0c0.1,0,0.2-0.1,0.2-0.4C70,84.6,69.8,83.9,69.2,83.9L69.2,83.9z"/>
	<path class="st3" d="M73.1,83.7c0.2,0,0.5,0,0.9,0c0.4,0,0.7,0,1.1,0l0,0.3l-0.4,0c-0.2,0-0.2,0.1-0.1,0.2c0.2,0.7,0.5,1.8,0.8,2.7
		c0.2-0.8,0.7-2.3,1-3.3c0.2,0,0.3,0,0.4,0c0.2,0.6,0.8,2.5,1.1,3.3c0.4-1.2,0.7-2.2,0.8-2.7c0-0.2,0-0.3-0.2-0.3l-0.4,0l0-0.3
		c0.3,0,0.6,0,1,0c0.4,0,0.6,0,0.8,0l0,0.3c-0.5,0-0.6,0.1-0.8,0.6c-0.3,0.7-0.8,2.2-1.2,3.5c-0.2,0-0.3,0-0.5,0
		c-0.2-0.7-0.7-2.1-1.1-3.2c-0.4,1.2-0.8,2.3-1,3.2c-0.2,0-0.3,0-0.5,0c-0.3-1-0.9-3.1-1.2-3.7c-0.1-0.3-0.2-0.4-0.7-0.4L73.1,83.7z
		"/>
	<path class="st3" d="M82.5,84.7c0-0.4-0.2-0.8-0.7-0.8c-0.5,0-0.8,0.3-0.8,0.7c0,0.1,0,0.2,0,0.3c0,0.1,0,0.2-0.1,0.2
		c-0.1,0.1-0.2,0.1-0.3,0.1c-0.2,0-0.4-0.1-0.4-0.4c0-0.5,0.7-1.1,1.7-1.1c0.8,0,1.1,0.3,1.2,0.5c0.1,0.1,0.1,0.3,0.1,0.5
		c0,0.3,0,2,0,2.6c0,0.4,0.1,0.4,0.2,0.4c0.2,0,0.3-0.2,0.4-0.6l0.2,0.1c-0.1,0.7-0.5,0.9-0.9,0.9c-0.5,0-0.7-0.3-0.7-0.7
		c-0.4,0.4-0.9,0.7-1.3,0.7c-0.7,0-1.1-0.5-1.1-1.2c0-0.4,0.1-0.7,0.5-0.9c0.6-0.3,1.5-0.6,1.9-0.9V84.7z M81,86.8
		c0,0.4,0.2,0.8,0.6,0.8c0.4,0,0.7-0.2,0.8-0.6c0-0.1,0-0.3,0-0.4v-1.2c-0.2,0.1-0.7,0.4-1.1,0.5C81.2,86.2,81,86.3,81,86.8L81,86.8
		z"/>
	<path class="st3" d="M84.3,81.4c0.6,0,1.2-0.1,1.5-0.1c0,0.3,0,1,0,2v2.5c0,1,0,1.5,0,1.7c0,0.2,0.1,0.3,0.6,0.3l0,0.3
		c-0.3,0-0.8,0-1.2,0c-0.4,0-0.7,0-1,0l0-0.3c0.5,0,0.6-0.1,0.6-0.3c0-0.2,0-0.9,0-1.7v-2.5c0-0.8,0-1.1,0-1.4
		c0-0.1-0.1-0.2-0.6-0.2V81.4z"/>
	<path class="st3" d="M86.8,81.4c0.6,0,1.2-0.1,1.5-0.1c0,0.3,0,1,0,2v2.5c0,1,0,1.5,0,1.7c0,0.2,0.1,0.3,0.6,0.3l0,0.3
		c-0.3,0-0.8,0-1.2,0c-0.4,0-0.7,0-1,0l0-0.3c0.5,0,0.6-0.1,0.6-0.3c0-0.2,0-0.9,0-1.7v-2.5c0-0.8,0-1.1,0-1.4
		c0-0.1-0.1-0.2-0.6-0.2V81.4z"/>
	<path class="st3" d="M90.3,86.9c0.3,0,0.6,0.3,0.6,0.6c0,0.4-0.3,0.6-0.6,0.6c-0.3,0-0.6-0.2-0.6-0.6
		C89.7,87.2,89.9,86.9,90.3,86.9L90.3,86.9z"/>
</g>
</svg>
