<?xml version="1.0" encoding="utf-8"?>
<!-- Generator: Adobe Illustrator 19.1.0, SVG Export Plug-In . SVG Version: 6.00 Build 0)  -->
<svg version="1.1" id="Layer_1" xmlns="http://www.w3.org/2000/svg" xmlns:xlink="http://www.w3.org/1999/xlink" x="0px" y="0px"
	 viewBox="47 -37 110 90" style="enable-background:new 47 -37 110 90;" xml:space="preserve">
<style type="text/css">
	.st0{fill:#0C6993;}
	.st1{fill:none;stroke:#0C6993;stroke-miterlimit:10;}
</style>
<polygon class="st0" points="47,-37 57,-27 57,43 147,43 157,53 47,53 "/>
<g>
	<path class="st0" d="M156-36v86.6l-8-8V-27v-1h-1H57.4l-8-8H156 M157-37H47l10,10h90v70l10,10V-37L157-37z"/>
</g>
<line class="st1" x1="74.5" y1="-17" x2="74.5" y2="28"/>
<polygon class="st0" points="85,-17 100,13 100,33 75,-17 "/>
<circle class="st0" cx="74.5" cy="24" r="7.5"/>
<polygon class="st0" points="100,33 125,-17 126,-17 101,33 "/>
<polygon class="st0" points="121,3 131,-17 131,-7 121,13 "/>
<polygon class="st0" points="121,23 131,3 131,13 121,33 "/>
<polygon class="st0" points="131,23 131,33 126,33 "/>
</svg>
