<?xml version="1.0" encoding="utf-8"?>
<!-- Generator: Adobe Illustrator 19.1.0, SVG Export Plug-In . SVG Version: 6.00 Build 0)  -->
<svg version="1.1" id="Layer_1" xmlns="http://www.w3.org/2000/svg" xmlns:xlink="http://www.w3.org/1999/xlink" x="0px" y="0px"
	 viewBox="0 0 110 90" style="enable-background:new 0 0 110 90;" xml:space="preserve">
<style type="text/css">
	.st0{fill:none;stroke:#000000;stroke-miterlimit:10;}
	.st1{fill:none;stroke:#FFFFFF;stroke-miterlimit:10;}
	.st2{clip-path:url(#SVGID_2_);}
	.st3{fill:#FFFFFF;}
	.st4{stroke:#FFFFFF;stroke-miterlimit:10;}
	.st5{stroke:#000000;stroke-miterlimit:10;}
	.st6{fill:#FFFFFF;stroke:#000000;stroke-miterlimit:10;}
</style>
<polygon class="st3" points="0,0 10,10 10,80 100,80 110,90 0,90 "/>
<g>
	<path class="st3" d="M109,1v86.6l-8-8V10V9h-1H10.4l-8-8H109 M110,0H0l10,10h90v70l10,10V0L110,0z"/>
</g>
<line class="st4" x1="27.5" y1="20" x2="27.5" y2="65"/>
<polygon class="st3" points="38,20 53,50 53,70 28,20 "/>
<circle class="st3" cx="27.5" cy="61" r="7.5"/>
<polygon class="st3" points="53,70 78,20 79,20 54,70 "/>
<polygon class="st3" points="74,40 84,20 84,30 74,50 "/>
<polygon class="st3" points="74,60 84,40 84,50 74,70 "/>
<polygon class="st3" points="84,60 84,70 79,70 "/>
</svg>
